Coordinates
version=1
nRows=49
nColumns=12
inDegrees=yes

Units are S.I. units (second, meters, Newtons, ...)
Angles are in degrees

endheader
time	SC_y	SC_z	SC_x	AC_y	AC_z	AC_x	GH_y	GH_z	GH_yy	EL_x	PS_y
       0.0              -44.34          29.66          50.08          60.52          9.525         -15.82          34.57          43.64          142.8          80.99          86.44
   0.00617              -44.34          29.65          50.08          60.52          9.521         -15.82          34.54          43.64          142.8          80.98          86.44
   0.01234              -44.34          29.65          50.08          60.52          9.518         -15.82          34.51          43.64          142.8          80.98          86.44
   0.01851              -44.33          29.65          50.08          60.52          9.514         -15.82          34.48          43.64          142.7          80.98          86.43
   0.02468              -44.33          29.65          50.08          60.52          9.509         -15.82          34.45          43.64          142.7          80.97          86.43
   0.03085              -44.32          29.64          50.09          60.51          9.505         -15.82          34.41          43.64          142.7          80.97          86.43
   0.03702              -44.32          29.64          50.09          60.51            9.5         -15.82          34.38          43.64          142.6          80.96          86.42
   0.04319              -44.32          29.64          50.09          60.51          9.495         -15.82          34.34          43.64          142.6          80.96          86.42
   0.04936              -44.31          29.63          50.09           60.5           9.49         -15.82           34.3          43.64          142.6          80.95          86.42
   0.05553              -44.31          29.63          50.09           60.5          9.484         -15.83          34.25          43.64          142.5          80.95          86.41
    0.0617               -44.3          29.62          50.09           60.5          9.478         -15.83           34.2          43.64          142.5          80.94          86.41
   0.06787              -44.29          29.62           50.1          60.49          9.471         -15.83          34.15          43.64          142.5          80.93           86.4
   0.07404              -44.29          29.62           50.1          60.49          9.464         -15.83           34.1          43.64          142.4          80.93          86.39
   0.08021              -44.28          29.61           50.1          60.48          9.456         -15.83          34.04          43.64          142.4          80.92          86.39
   0.08638              -44.27           29.6           50.1          60.48          9.447         -15.83          33.97          43.64          142.3          80.91          86.38
   0.09255              -44.27           29.6           50.1          60.47          9.438         -15.83           33.9          43.64          142.2           80.9          86.37
   0.09872              -44.26          29.59          50.11          60.47          9.428         -15.83          33.82          43.64          142.2          80.89          86.37
    0.1049              -44.25          29.58          50.11          60.46          9.417         -15.83          33.74          43.64          142.1          80.88          86.36
    0.1111              -44.24          29.58          50.11          60.45          9.405         -15.84          33.65          43.64          142.0          80.87          86.35
    0.1172              -44.22          29.57          50.12          60.44          9.392         -15.84          33.55          43.64          142.0          80.86          86.34
    0.1234              -44.21          29.56          50.12          60.44          9.378         -15.84          33.44          43.63          141.9          80.84          86.32
    0.1296               -44.2          29.55          50.12          60.43          9.362         -15.84          33.31          43.63          141.8          80.83          86.31
    0.1357              -44.18          29.53          50.13          60.42          9.344         -15.84          33.18          43.63          141.7          80.81           86.3
    0.1419              -44.16          29.52          50.13           60.4          9.325         -15.85          33.03          43.63          141.5          80.79          86.28
    0.1481              -44.15          29.51          50.14          60.39          9.304         -15.85          32.87          43.63          141.4          80.77          86.26
    0.1543              -44.12          29.49          50.15          60.38           9.28         -15.85          32.68          43.63          141.2          80.74          86.25
    0.1604               -44.1          29.47          50.15          60.36          9.253         -15.86          32.48          43.63          141.1          80.72          86.22
    0.1666              -44.07          29.45          50.16          60.34          9.223         -15.86          32.24          43.62          140.9          80.69           86.2
    0.1728              -44.04          29.43          50.17          60.32          9.189         -15.86          31.98          43.62          140.7          80.65          86.17
    0.1789              -44.01           29.4          50.18           60.3           9.15         -15.87          31.68          43.62          140.4          80.62          86.14
    0.1851              -43.97          29.37          50.19          60.27          9.106         -15.88          31.34          43.62          140.1          80.57           86.1
    0.1913              -43.92          29.33          50.21          60.24          9.055         -15.88          30.95          43.61          139.8          80.52          86.06
    0.1974              -43.87          29.29          50.22          60.21          8.996         -15.89           30.5          43.61          139.4          80.46          86.02
    0.2036              -43.81          29.25          50.24          60.17          8.928          -15.9          29.98          43.61          139.0           80.4          85.96
    0.2098              -43.74          29.19          50.26          60.12          8.849         -15.91          29.37           43.6          138.5          80.32           85.9
     0.216              -43.66          29.13          50.29          60.06          8.755         -15.92          28.65           43.6          137.9          80.22          85.82
    0.2221              -43.56          29.05          50.32           60.0          8.643         -15.94          27.79          43.59          137.2          80.11          85.73
    0.2283              -43.44          28.96          50.35          59.92           8.51         -15.95          26.76          43.58          136.3          79.98          85.62
    0.2345              -43.29          28.85           50.4          59.82          8.348         -15.98          25.51          43.57          135.3          79.82          85.49
    0.2406              -43.12          28.71          50.45           59.7           8.15          -16.0          23.99          43.56          134.0          79.63          85.33
    0.2468               -42.9          28.55          50.51          59.55          7.906         -16.03          22.12          43.54          132.5          79.38          85.13
     0.253              -42.63          28.34           50.6          59.37          7.602         -16.07          19.78          43.52          130.5          79.08          84.89
    0.2591              -42.29          28.08           50.7          59.14          7.219         -16.12          16.83           43.5          128.1           78.7          84.58
    0.2653              -41.85          27.74          50.83          58.85          6.732         -16.19          13.09          43.47          125.0          78.22          84.18
    0.2715              -41.29          27.31          50.99          58.47          6.109         -16.27          8.293          43.43          121.0          77.61          83.68
    0.2777              -40.58          26.76          51.21          57.99          5.309         -16.38           2.14          43.38          115.9          76.81          83.03
    0.2838              -39.67          26.06          51.48          57.38          4.287         -16.51          -5.72          43.32          109.4           75.8           82.2
      0.29              -38.52          25.18          51.83          56.61          3.002         -16.68          -15.6          43.24          101.2          74.53          81.16
    0.2962              -37.13          24.11          52.24          55.67          1.437         -16.89         -27.64          43.14          91.19          72.98          79.89
